<svg width="17" height="17" viewBox="0 0 17 17" fill="none" xmlns="http://www.w3.org/2000/svg">
<path id="Vector" d="M8.50007 0C3.80621 0 0 3.90187 0 8.71521C0 12.5658 2.43552 15.8327 5.81287 16.9851C6.23767 17.0658 6.39366 16.796 6.39366 16.5658C6.39366 16.358 6.38569 15.6715 6.38211 14.9433C4.01738 15.4704 3.5184 13.915 3.5184 13.915C3.13172 12.9076 2.57457 12.6397 2.57457 12.6397C1.80339 12.0988 2.63274 12.11 2.63274 12.11C3.48626 12.1714 3.9357 13.008 3.9357 13.008C4.69386 14.3404 5.92423 13.9552 6.40927 13.7325C6.48557 13.1693 6.70584 12.7847 6.94895 12.5671C5.06095 12.3468 3.07627 11.5994 3.07627 8.26005C3.07627 7.30853 3.4083 6.53105 3.95204 5.92071C3.86378 5.7012 3.57286 4.81484 4.03438 3.61433C4.03438 3.61433 4.74818 3.38011 6.37254 4.5077C7.05055 4.31461 7.7777 4.21779 8.50007 4.21445C9.22243 4.21779 9.95018 4.31454 10.6294 4.5077C12.2518 3.38018 12.9646 3.6144 12.9646 3.6144C13.4273 4.81478 13.1362 5.70127 13.048 5.92071C13.593 6.53105 13.9227 7.30853 13.9227 8.26005C13.9227 11.6074 11.9343 12.3445 10.0415 12.5602C10.3464 12.8307 10.618 13.3611 10.618 14.1742C10.618 15.3402 10.6082 16.2787 10.6082 16.5658C10.6082 16.7978 10.7612 17.0695 11.192 16.9838C14.5675 15.8302 17 12.5646 17 8.71528C17 3.90187 13.1943 0 8.50007 0ZM3.18358 12.415C3.16486 12.4583 3.09838 12.4713 3.03789 12.4415C2.9762 12.4132 2.9416 12.3541 2.96152 12.3107C2.97985 12.2661 3.04645 12.2536 3.10795 12.2835C3.1697 12.312 3.2049 12.3716 3.18358 12.415ZM3.60168 12.7975C3.56117 12.836 3.48188 12.8181 3.42809 12.7573C3.37251 12.6965 3.36208 12.6152 3.40319 12.5762C3.44502 12.5376 3.52186 12.5557 3.57757 12.6164C3.63322 12.6779 3.64398 12.7586 3.60168 12.7975ZM3.88855 13.2869C3.83642 13.324 3.75129 13.2892 3.69863 13.2118C3.64657 13.1343 3.64657 13.0413 3.69976 13.0041C3.75255 12.9668 3.83642 13.0003 3.88975 13.0773C3.94168 13.1561 3.94174 13.2489 3.88855 13.2869ZM4.37352 13.8538C4.32696 13.9065 4.22769 13.8923 4.15504 13.8204C4.08073 13.7502 4.06008 13.6505 4.10683 13.5978C4.15398 13.545 4.25378 13.5598 4.32696 13.6312C4.40068 13.7013 4.42325 13.8017 4.37352 13.8538ZM5.00052 14.0451C4.97994 14.1134 4.88431 14.1445 4.78809 14.1155C4.69193 14.0856 4.62905 14.0056 4.64844 13.9367C4.66843 13.8679 4.76445 13.8356 4.8614 13.8667C4.95743 13.8964 5.02051 13.9757 5.00052 14.0451ZM5.71399 14.1264C5.71638 14.1983 5.63477 14.2578 5.5337 14.2592C5.4321 14.2615 5.34982 14.2034 5.34869 14.1326C5.34869 14.06 5.42851 14.001 5.53018 13.9992C5.63125 13.9972 5.71399 14.0549 5.71399 14.1264ZM6.41491 14.0989C6.427 14.169 6.3568 14.241 6.2564 14.2602C6.15778 14.2787 6.06641 14.2354 6.05386 14.1659C6.04164 14.094 6.11316 14.0219 6.21164 14.0033C6.31218 13.9854 6.40209 14.0276 6.41491 14.0989Z" fill="white"/>
</svg>
