<svg width="17" height="17" viewBox="0 0 17 17" fill="none" xmlns="http://www.w3.org/2000/svg">
<g id="devicon:linkedin" clip-path="url(#clip0_38_21)">
<path id="Vector" d="M15.4062 0.398438H1.59375C1.28035 0.395248 0.978492 0.516514 0.7544 0.735626C0.530308 0.954738 0.402291 1.2538 0.398438 1.56719V15.4355C0.402987 15.7484 0.531311 16.0468 0.755327 16.2653C0.979343 16.4839 1.28081 16.6048 1.59375 16.6016H15.4062C15.7197 16.604 16.0213 16.4824 16.2453 16.2631C16.4693 16.0439 16.5974 15.7449 16.6016 15.4315V1.5632C16.596 1.25073 16.4673 0.953099 16.2435 0.734992C16.0196 0.516886 15.7188 0.395938 15.4062 0.398438Z" fill="#0076B2"/>
<path id="Vector_2" d="M2.79696 6.47192H5.2022V14.2109H2.79696V6.47192ZM4.00024 2.62036C4.27611 2.62036 4.54578 2.70218 4.77514 2.85547C5.0045 3.00877 5.18324 3.22664 5.28875 3.48154C5.39426 3.73643 5.4218 4.01689 5.36788 4.28744C5.31397 4.55799 5.18102 4.80647 4.98586 5.00144C4.79069 5.19642 4.54209 5.32913 4.27149 5.38279C4.00089 5.43645 3.72045 5.40864 3.46566 5.30289C3.21087 5.19714 2.99316 5.01819 2.84009 4.78869C2.68702 4.55918 2.60545 4.28943 2.60571 4.01356C2.60607 3.64394 2.75314 3.28958 3.01463 3.02834C3.27612 2.7671 3.63062 2.62036 4.00024 2.62036ZM6.71095 6.47192H9.01657V7.53442H9.04845C9.36985 6.92614 10.1534 6.28466 11.3235 6.28466C13.7593 6.27935 14.2109 7.88239 14.2109 9.96091V14.2109H11.8056V10.4457C11.8056 9.54919 11.7897 8.39505 10.5559 8.39505C9.32204 8.39505 9.1122 9.37255 9.1122 10.3872V14.2109H6.71095V6.47192Z" fill="white"/>
</g>
<defs>
<clipPath id="clip0_38_21">
<rect width="17" height="17" fill="white"/>
</clipPath>
</defs>
</svg>
