<svg width="52" height="52" viewBox="0 0 52 52" fill="none" xmlns="http://www.w3.org/2000/svg">
<g id="line-md:coffee-half-empty-filled-loop">
<path id="Vector" d="M36.8334 30.3333V39C36.8334 42.5967 33.93 45.5 30.3334 45.5H17.3334C13.7367 45.5 10.8334 42.5967 10.8334 39V30.3333H36.8334Z" fill="black"/>
<g id="Group">
<path id="Vector_2" d="M36.8334 19.5V39C36.8334 42.5967 33.93 45.5 30.3334 45.5H17.3334C13.7367 45.5 10.8334 42.5967 10.8334 39V19.5H36.8334Z" stroke="black" stroke-width="2" stroke-linecap="round" stroke-linejoin="round"/>
<path id="Vector_3" d="M36.8334 19.5H43.3334C44.525 19.5 45.5 20.475 45.5 21.6667V28.1667C45.5 29.3583 44.525 30.3333 43.3334 30.3333H36.8334" stroke="black" stroke-width="2" stroke-linecap="round" stroke-linejoin="round"/>
<g id="Mask group">
<mask id="mask0_31_9" style="mask-type:luminance" maskUnits="userSpaceOnUse" x="12" y="-1" width="24" height="37">
<g id="Group_2">
<path id="Vector_4" d="M17.3333 0C17.3333 4.33333 13 4.33333 13 8.66667C13 13 17.3333 13 17.3333 17.3333C17.3333 21.6667 13 21.6667 13 26C13 30.3333 17.3333 30.3333 17.3333 34.6667M26 0C26 4.33333 21.6667 4.33333 21.6667 8.66667C21.6667 13 26 13 26 17.3333C26 21.6667 21.6667 21.6667 21.6667 26C21.6667 30.3333 26 30.3333 26 34.6667M34.6667 0C34.6667 4.33333 30.3333 4.33333 30.3333 8.66667C30.3333 13 34.6667 13 34.6667 17.3333C34.6667 21.6667 30.3333 21.6667 30.3333 26C30.3333 30.3333 34.6667 30.3333 34.6667 34.6667" stroke="white" stroke-width="2" stroke-linecap="round" stroke-linejoin="round"/>
</g>
</mask>
<g mask="url(#mask0_31_9)">
<path id="Vector_5" d="M52 4.33333H0V15.1667H52V4.33333Z" fill="black" stroke="black" stroke-width="2" stroke-linecap="round" stroke-linejoin="round"/>
</g>
</g>
</g>
</g>
</svg>
